<?xml version="1.0" standalone="no"?>
<!DOCTYPE svg PUBLIC "-//W3C//DTD SVG 20010904//EN"
 "http://www.w3.org/TR/2001/REC-SVG-20010904/DTD/svg10.dtd">
<svg version="1.0" xmlns="http://www.w3.org/2000/svg"
 width="272.000000pt" height="272.000000pt" viewBox="0 0 272.000000 272.000000"
 preserveAspectRatio="xMidYMid meet">
<metadata>
Created by potrace 1.14, written by Peter Selinger 2001-2017
</metadata>
<g transform="translate(0.000000,272.000000) scale(0.100000,-0.100000)"
fill="#000000" stroke="none">
<path d="M982 2216 c-27 -14 -320 -315 -361 -371 -21 -27 -48 -70 -62 -95 -13
-25 -30 -51 -36 -58 -7 -7 -13 -17 -13 -22 0 -5 -14 -29 -31 -54 -26 -36 -30
-50 -25 -79 5 -27 14 -38 46 -53 46 -21 53 -57 13 -62 -28 -4 -52 -37 -46 -62
3 -11 18 -25 33 -32 25 -11 28 -18 28 -55 0 -23 3 -46 6 -51 3 -5 -8 -19 -24
-31 -45 -33 -36 -93 12 -86 21 4 29 -7 51 -65 15 -38 15 -47 4 -55 -28 -20
-37 -51 -22 -71 14 -19 17 -21 60 -23 17 -1 33 -13 51 -41 24 -35 25 -43 14
-69 -23 -56 9 -89 68 -72 23 7 33 3 65 -28 34 -33 37 -39 28 -64 -9 -23 -7
-31 9 -47 24 -24 27 -24 65 -2 30 19 30 19 77 -7 38 -21 47 -30 43 -48 -2 -12
5 -31 15 -43 21 -25 49 -21 79 11 16 18 23 18 68 8 44 -10 52 -16 60 -42 11
-39 47 -53 71 -28 9 10 22 25 27 34 6 10 28 17 60 19 44 3 51 0 60 -20 11 -26
51 -40 74 -25 8 5 19 24 23 41 5 18 13 33 18 33 6 1 14 2 19 3 5 0 13 4 17 9
14 13 56 7 81 -12 20 -16 29 -18 49 -9 25 12 27 17 24 59 -1 20 8 32 40 53 37
24 44 26 74 15 57 -21 89 8 69 62 -10 25 -7 31 26 65 29 31 43 38 75 38 52 1
68 25 44 66 -16 28 -14 70 3 70 5 0 9 9 9 20 0 21 34 44 55 36 22 -8 48 30 42
61 -7 39 14 143 37 176 19 28 19 28 -3 58 -12 17 -28 53 -35 80 -18 68 -16 69
172 154 58 27 62 31 62 63 0 37 -33 92 -56 92 -7 0 -48 -16 -90 -35 -41 -19
-80 -35 -85 -35 -6 0 -7 -5 -3 -12 4 -7 3 -8 -5 -4 -6 4 -18 3 -25 -3 -10 -8
-16 -8 -23 1 -21 27 -22 48 -4 60 46 33 26 92 -30 90 -29 0 -38 5 -63 40 -27
40 -28 43 -13 73 14 29 14 35 1 54 -16 22 -44 27 -73 11 -14 -7 -26 -1 -55 29
-31 31 -37 44 -33 68 5 34 0 45 -28 60 -15 9 -25 7 -47 -9 l-28 -19 -42 23
c-51 27 -57 34 -51 58 7 25 -30 60 -56 53 -11 -3 -27 -15 -35 -27 -13 -21 -18
-22 -65 -12 -46 9 -62 22 -60 49 1 13 -34 36 -53 37 -10 0 -25 -12 -35 -27 -9
-16 -18 -30 -19 -32 -2 -1 -19 -5 -39 -8 -30 -4 -42 0 -64 21 -22 21 -47 30
-117 42 -115 19 -151 21 -172 10z m-372 -451 c0 -8 -4 -15 -10 -15 -5 0 -7 7
-4 15 4 8 8 15 10 15 2 0 4 -7 4 -15z"/>
</g>
</svg>
